<svg width="20" height="20" viewBox="0 0 20 20" fill="none" xmlns="http://www.w3.org/2000/svg">
<path d="M10 19.4661C8.68333 19.4661 7.446 19.2161 6.288 18.7161C5.12933 18.2161 4.125 17.5411 3.275 16.6911C2.425 15.8411 1.75 14.8367 1.25 13.6781C0.75 12.5201 0.5 11.2827 0.5 9.96606C0.5 8.6494 0.75 7.41173 1.25 6.25306C1.75 5.09506 2.425 4.09106 3.275 3.24106C4.125 2.39106 5.12933 1.71606 6.288 1.21606C7.446 0.716064 8.68333 0.466064 10 0.466064C11.3167 0.466064 12.5543 0.716064 13.713 1.21606C14.871 1.71606 15.875 2.39106 16.725 3.24106C17.575 4.09106 18.25 5.09506 18.75 6.25306C19.25 7.41173 19.5 8.6494 19.5 9.96606C19.5 11.2827 19.25 12.5201 18.75 13.6781C18.25 14.8367 17.575 15.8411 16.725 16.6911C15.875 17.5411 14.871 18.2161 13.713 18.7161C12.5543 19.2161 11.3167 19.4661 10 19.4661ZM9.25 14.7161H10.75V10.7161H14.75V9.21606H10.75V5.21606H9.25V9.21606H5.25V10.7161H9.25V14.7161Z" fill="#FFB800"/>
</svg>
