<svg width="14" height="17" viewBox="0 0 14 17" fill="none" xmlns="http://www.w3.org/2000/svg">
<path d="M2 14.95L7 12.8L12 14.95V2.3C12 2.23333 11.9667 2.16667 11.9 2.1C11.8333 2.03333 11.7667 2 11.7 2H2.3C2.23333 2 2.16667 2.03333 2.1 2.1C2.03333 2.16667 2 2.23333 2 2.3V14.95ZM1.19781 16.9494C0.867775 17.0916 0.5 16.8496 0.5 16.4902V2.3C0.5 1.8 0.675 1.375 1.025 1.025C1.375 0.675 1.8 0.5 2.3 0.5H11.7C12.2 0.5 12.625 0.675 12.975 1.025C13.325 1.375 13.5 1.8 13.5 2.3V16.4902C13.5 16.8496 13.1322 17.0916 12.8022 16.9494L7 14.45L1.19781 16.9494Z" fill="white"/>
</svg>
