<svg width="14" height="14" viewBox="0 0 14 14" fill="none" xmlns="http://www.w3.org/2000/svg">
<path d="M7.00002 8.0499L1.92502 13.1249C1.79169 13.2582 1.62102 13.3289 1.41302 13.3369C1.20436 13.3456 1.02502 13.2749 0.875024 13.1249C0.725024 12.9749 0.650024 12.7999 0.650024 12.5999C0.650024 12.3999 0.725024 12.2249 0.875024 12.0749L5.95002 6.9999L0.875024 1.9249C0.741691 1.79157 0.671024 1.62057 0.663024 1.4119C0.654358 1.2039 0.725024 1.0249 0.875024 0.874902C1.02502 0.724902 1.20002 0.649902 1.40002 0.649902C1.60002 0.649902 1.77502 0.724902 1.92502 0.874902L7.00002 5.9499L12.075 0.874902C12.2084 0.741569 12.3794 0.670569 12.588 0.661902C12.796 0.653902 12.975 0.724902 13.125 0.874902C13.275 1.0249 13.35 1.1999 13.35 1.3999C13.35 1.5999 13.275 1.7749 13.125 1.9249L8.05002 6.9999L13.125 12.0749C13.2584 12.2082 13.329 12.3789 13.337 12.5869C13.3457 12.7956 13.275 12.9749 13.125 13.1249C12.975 13.2749 12.8 13.3499 12.6 13.3499C12.4 13.3499 12.225 13.2749 12.075 13.1249L7.00002 8.0499Z" fill="white"/>
</svg>
