<svg width="16" height="16" viewBox="0 0 16 16" fill="none" xmlns="http://www.w3.org/2000/svg">
<path d="M8.05005 15.5C5.95005 15.5 4.17505 14.775 2.72505 13.325C1.27505 11.875 0.550049 10.1 0.550049 8C0.550049 5.9 1.27505 4.125 2.72505 2.675C4.17505 1.225 5.95005 0.5 8.05005 0.5C9.21672 0.5 10.321 0.758333 11.363 1.275C12.4044 1.79167 13.2667 2.525 13.95 3.475V1.25C13.95 0.835787 14.2858 0.5 14.7 0.5C15.1143 0.5 15.45 0.835786 15.45 1.25V6.33452C15.45 6.49495 15.32 6.625 15.1596 6.625H10.1C9.68583 6.625 9.35005 6.28921 9.35005 5.875C9.35005 5.46079 9.68584 5.125 10.1 5.125H13.3C12.7667 4.15833 12.0334 3.396 11.1 2.838C10.1667 2.27933 9.15005 2 8.05005 2C6.38338 2 4.96672 2.58333 3.80005 3.75C2.63338 4.91667 2.05005 6.33333 2.05005 8C2.05005 9.66667 2.63338 11.0833 3.80005 12.25C4.96672 13.4167 6.38338 14 8.05005 14C9.33338 14 10.4917 13.6333 11.525 12.9C12.5584 12.1667 13.2834 11.2 13.7 10H15.275C14.825 11.6333 13.9294 12.9583 12.588 13.975C11.246 14.9917 9.73338 15.5 8.05005 15.5Z" fill="white"/>
</svg>
