<svg width="11" height="11" viewBox="0 0 11 11" fill="none" xmlns="http://www.w3.org/2000/svg">
<path d="M5.50005 6.28755L1.6938 10.0938C1.5938 10.1938 1.4658 10.2468 1.3098 10.2528C1.1533 10.2593 1.0188 10.2063 0.906299 10.0938C0.793799 9.9813 0.737549 9.85005 0.737549 9.70005C0.737549 9.55005 0.793799 9.4188 0.906299 9.3063L4.71255 5.50005L0.906299 1.6938C0.806299 1.5938 0.753299 1.46555 0.747299 1.30905C0.740799 1.15305 0.793799 1.0188 0.906299 0.906299C1.0188 0.793799 1.15005 0.737549 1.30005 0.737549C1.45005 0.737549 1.5813 0.793799 1.6938 0.906299L5.50005 4.71255L9.3063 0.906299C9.4063 0.806299 9.53455 0.753049 9.69105 0.746549C9.84705 0.740549 9.9813 0.793799 10.0938 0.906299C10.2063 1.0188 10.2625 1.15005 10.2625 1.30005C10.2625 1.45005 10.2063 1.5813 10.0938 1.6938L6.28755 5.50005L10.0938 9.3063C10.1938 9.4063 10.2468 9.5343 10.2528 9.6903C10.2593 9.8468 10.2063 9.9813 10.0938 10.0938C9.9813 10.2063 9.85005 10.2625 9.70005 10.2625C9.55005 10.2625 9.4188 10.2063 9.3063 10.0938L5.50005 6.28755Z" fill="white"/>
</svg>
