<svg width="30" height="30" viewBox="0 0 30 30" fill="none" xmlns="http://www.w3.org/2000/svg">
<path d="M9.01079e-09 15C4.03427e-09 6.71573 6.71573 -4.03427e-09 15 -9.01079e-09C23.2843 -1.39873e-08 30 6.71573 30 15C30 23.2843 23.2843 30 15 30L1.80216e-08 30L9.01079e-09 15Z" fill="white" fill-opacity="0.15"/>
<path d="M21 21C21.2195 20.7805 21.2195 20.4245 21 20.205L17.5875 16.7925C18.315 15.8925 18.75 14.745 18.75 13.5C18.75 10.5975 16.4025 8.25 13.5 8.25C10.5975 8.25 8.25 10.5975 8.25 13.5C8.25 16.4025 10.5975 18.75 13.5 18.75C14.745 18.75 15.8925 18.315 16.7925 17.5875L20.205 21C20.4245 21.2195 20.7805 21.2195 21 21ZM9.375 13.5C9.375 11.2275 11.2275 9.375 13.5 9.375C15.7725 9.375 17.625 11.2275 17.625 13.5C17.625 15.7725 15.7725 17.625 13.5 17.625C11.2275 17.625 9.375 15.7725 9.375 13.5Z" fill="white"/>
</svg>
